<svg width="25" height="26" viewBox="0 0 25 26" fill="none" xmlns="http://www.w3.org/2000/svg">
<g id="Font Awesome Brands Icon 1" clip-path="url(#clip0_21_8)">
<path id="Vector" d="M13.1299 0.543943C12.8613 0.509763 12.5928 0.612302 12.4219 0.822263C12.251 1.03222 12.1973 1.31543 12.2852 1.57422C12.4219 1.97461 12.4951 2.39941 12.4951 2.84863C12.4951 5.00195 10.752 6.75 8.59863 6.75488H7.8125C6.08887 6.75488 4.6875 8.15625 4.6875 9.87988C4.6875 10.8125 5.09766 11.6523 5.74707 12.2236H5.07812C3.13477 12.2236 1.5625 13.7959 1.5625 15.7393C1.5625 16.8721 2.09961 17.8779 2.92969 18.5225C1.26465 18.8008 0 20.2461 0 21.9893C0 23.9326 1.57227 25.5049 3.51562 25.5049H21.4844C23.4277 25.5049 25 23.9326 25 21.9893C25 20.2461 23.7354 18.8008 22.0703 18.5225C22.9004 17.8779 23.4375 16.8721 23.4375 15.7393C23.4375 13.7959 21.8652 12.2236 19.9219 12.2236H19.2529C19.9023 11.6523 20.3125 10.8125 20.3125 9.87988C20.3125 8.15625 18.9111 6.75488 17.1875 6.75488H16.9189C17.0898 6.2666 17.1875 5.73925 17.1875 5.19238C17.1875 2.81933 15.4199 0.856443 13.1299 0.548825V0.543943ZM9.375 13C9.7894 13 10.1868 13.1646 10.4799 13.4576C10.7729 13.7507 10.9375 14.1481 10.9375 14.5625C10.9375 14.9769 10.7729 15.3743 10.4799 15.6674C10.1868 15.9604 9.7894 16.125 9.375 16.125C8.9606 16.125 8.56317 15.9604 8.27015 15.6674C7.97712 15.3743 7.8125 14.9769 7.8125 14.5625C7.8125 14.1481 7.97712 13.7507 8.27015 13.4576C8.56317 13.1646 8.9606 13 9.375 13ZM14.0625 14.5625C14.0625 14.1481 14.2271 13.7507 14.5201 13.4576C14.8132 13.1646 15.2106 13 15.625 13C16.0394 13 16.4368 13.1646 16.7299 13.4576C17.0229 13.7507 17.1875 14.1481 17.1875 14.5625C17.1875 14.9769 17.0229 15.3743 16.7299 15.6674C16.4368 15.9604 16.0394 16.125 15.625 16.125C15.2106 16.125 14.8132 15.9604 14.5201 15.6674C14.2271 15.3743 14.0625 14.9769 14.0625 14.5625ZM17.1875 19.8506C17.1875 19.9678 17.1533 20.085 17.0801 20.1777C16.6797 20.6904 15.1514 22.375 12.5 22.375C9.84863 22.375 8.32031 20.6855 7.91992 20.1777C7.84668 20.085 7.8125 19.9678 7.8125 19.8506C7.8125 19.5186 8.08105 19.25 8.41309 19.25H16.5869C16.9189 19.25 17.1875 19.5186 17.1875 19.8506Z" fill="#939393"/>
</g>
<defs>
<clipPath id="clip0_21_8">
<rect width="25" height="25" fill="white" transform="translate(0 0.5)"/>
</clipPath>
</defs>
</svg>
