<svg width="25" height="26" viewBox="0 0 25 26" fill="none" xmlns="http://www.w3.org/2000/svg">
<path id="Subtract" fill-rule="evenodd" clip-rule="evenodd" d="M0 13C0 6.09644 5.59644 0.5 12.5 0.5C19.4036 0.5 25 6.09644 25 13C25 19.9036 19.4036 25.5 12.5 25.5C5.59644 25.5 0 19.9036 0 13ZM14.5868 7.97856C13.4473 6.9815 11.5533 6.9815 10.4138 7.97856C10.0142 8.32825 9.40671 8.28776 9.05702 7.88811C8.70732 7.48846 8.74782 6.88099 9.14747 6.5313C11.012 4.89982 13.9886 4.89982 15.8531 6.5313C17.7929 8.22865 17.7929 11.0406 15.8531 12.7379C15.5241 13.0258 15.1617 13.2617 14.7796 13.4466C13.9125 13.8662 13.4618 14.4387 13.4618 14.9231V15.8846C13.4618 16.4157 13.0313 16.8462 12.5003 16.8462C11.9692 16.8462 11.5388 16.4157 11.5388 15.8846V14.9231C11.5388 13.2833 12.8968 12.2213 13.9418 11.7156C14.176 11.6023 14.393 11.4602 14.5868 11.2907C15.651 10.3595 15.651 8.90974 14.5868 7.97856ZM12.5 20.6923C13.031 20.6923 13.4615 20.2618 13.4615 19.7308C13.4615 19.1997 13.031 18.7692 12.5 18.7692C11.969 18.7692 11.5385 19.1997 11.5385 19.7308C11.5385 20.2618 11.969 20.6923 12.5 20.6923Z" fill="#939393"/>
</svg>
