<svg width="328" height="176" viewBox="0 0 328 176" fill="none" xmlns="http://www.w3.org/2000/svg">
<g filter="url(#filter0_dii_5_260)">
<path d="M47.7914 108.649L71.4625 92.1262L45.3175 79.8881L47.7914 108.649ZM277.814 22.9203C277.814 37.2259 275.33 46.9901 271.161 53.5276C267.054 59.9688 261.146 63.5358 253.643 65.146C246.046 66.7767 236.861 66.3835 226.434 64.8223C216.025 63.2638 204.611 60.5813 192.578 57.7693C168.655 52.1786 142.32 46.0692 118.058 48.0182C93.5825 49.9845 71.1213 60.1588 55.1863 86.9828L59.485 89.5365C74.4624 64.3244 95.3298 54.8602 118.459 53.0022C141.801 51.127 167.347 57.0077 191.44 62.6381C203.416 65.4367 215.044 68.1725 225.694 69.7672C236.326 71.3591 246.216 71.854 254.693 70.0347C263.265 68.1948 270.43 63.9738 275.377 56.216C280.263 48.5544 282.814 37.7086 282.814 22.9203L277.814 22.9203Z" fill="url(#paint0_linear_5_260)"/>
</g>
<defs>
<filter id="filter0_dii_5_260" x="0.751987" y="0.637621" width="326.628" height="174.86" filterUnits="userSpaceOnUse" color-interpolation-filters="sRGB">
<feFlood flood-opacity="0" result="BackgroundImageFix"/>
<feColorMatrix in="SourceAlpha" type="matrix" values="0 0 0 0 0 0 0 0 0 0 0 0 0 0 0 0 0 0 127 0" result="hardAlpha"/>
<feOffset dy="22.2827"/>
<feGaussianBlur stdDeviation="22.2827"/>
<feColorMatrix type="matrix" values="0 0 0 0 1 0 0 0 0 1 0 0 0 0 1 0 0 0 0.25 0"/>
<feBlend mode="normal" in2="BackgroundImageFix" result="effect1_dropShadow_5_260"/>
<feBlend mode="normal" in="SourceGraphic" in2="effect1_dropShadow_5_260" result="shape"/>
<feColorMatrix in="SourceAlpha" type="matrix" values="0 0 0 0 0 0 0 0 0 0 0 0 0 0 0 0 0 0 127 0" result="hardAlpha"/>
<feOffset dy="7.42757"/>
<feGaussianBlur stdDeviation="3.71378"/>
<feComposite in2="hardAlpha" operator="arithmetic" k2="-1" k3="1"/>
<feColorMatrix type="matrix" values="0 0 0 0 0.803255 0 0 0 0 0.701815 0 0 0 0 0.701815 0 0 0 1 0"/>
<feBlend mode="normal" in2="shape" result="effect2_innerShadow_5_260"/>
<feColorMatrix in="SourceAlpha" type="matrix" values="0 0 0 0 0 0 0 0 0 0 0 0 0 0 0 0 0 0 127 0" result="hardAlpha"/>
<feOffset dy="-3.71378"/>
<feGaussianBlur stdDeviation="1.85689"/>
<feComposite in2="hardAlpha" operator="arithmetic" k2="-1" k3="1"/>
<feColorMatrix type="matrix" values="0 0 0 0 1 0 0 0 0 1 0 0 0 0 1 0 0 0 1 0"/>
<feBlend mode="normal" in2="effect2_innerShadow_5_260" result="effect3_innerShadow_5_260"/>
</filter>
<linearGradient id="paint0_linear_5_260" x1="186.178" y1="102.679" x2="143.709" y2="26.8412" gradientUnits="userSpaceOnUse">
<stop stop-color="#EDEAEA"/>
<stop offset="1" stop-color="white"/>
</linearGradient>
</defs>
</svg>
