<svg width="50" height="50" viewBox="0 0 50 50" fill="none" xmlns="http://www.w3.org/2000/svg">
<g id="heroicons-mini/magnifying-glass">
<path id="Vector (Stroke)" fill-rule="evenodd" clip-rule="evenodd" d="M22.5 8.75C14.9061 8.75 8.75 14.9061 8.75 22.5C8.75 30.0939 14.9061 36.25 22.5 36.25C26.2975 36.25 29.7324 34.713 32.2227 32.2227C34.713 29.7324 36.25 26.2975 36.25 22.5C36.25 14.9061 30.0939 8.75 22.5 8.75ZM5 22.5C5 12.835 12.835 5 22.5 5C32.165 5 40 12.835 40 22.5C40 26.6563 38.5492 30.4764 36.1293 33.4777L44.4508 41.7992C45.1831 42.5314 45.1831 43.7186 44.4508 44.4508C43.7186 45.1831 42.5314 45.1831 41.7992 44.4508L33.4777 36.1293C30.4764 38.5492 26.6563 40 22.5 40C12.835 40 5 32.165 5 22.5Z" fill="#4D4D4D"/>
</g>
</svg>
