<svg width="1275" height="914" viewBox="0 0 1275 914" fill="none" xmlns="http://www.w3.org/2000/svg">
<g filter="url(#filter0_dii_76_4)">
<path d="M783.111 897.867C781.021 897.107 779.934 894.806 780.672 892.708L790.363 865.152C791.107 863.039 793.423 861.929 795.536 862.671L823.092 872.363C824.64 872.907 825.708 874.331 825.798 875.969C825.887 877.608 824.98 879.139 823.501 879.849L786.253 897.713C785.269 898.185 784.136 898.24 783.111 897.867ZM796.672 871.672L791.577 886.161L811.162 876.769L796.672 871.672Z" fill="url(#paint0_linear_76_4)"/>
</g>
<g filter="url(#filter1_dii_76_4)">
<path d="M249.111 544.867C247.021 544.107 245.934 541.806 246.672 539.708L256.363 512.152C257.107 510.039 259.423 508.929 261.536 509.671L289.092 519.363C290.64 519.907 291.708 521.331 291.798 522.969C291.887 524.608 290.98 526.139 289.501 526.849L252.253 544.713C251.269 545.185 250.136 545.24 249.111 544.867ZM262.672 518.672L257.577 533.161L277.162 523.769L262.672 518.672Z" fill="url(#paint1_linear_76_4)"/>
</g>
<g filter="url(#filter2_dii_76_4)">
<path d="M866.663 241.325C859.115 241.325 852.31 236.778 849.421 229.805C846.533 222.831 848.129 214.804 853.467 209.467C858.804 204.129 866.831 202.533 873.805 205.421C880.778 208.31 885.325 215.115 885.325 222.663C885.313 232.965 876.965 241.313 866.663 241.325ZM866.663 212.115C860.837 212.115 856.115 216.837 856.115 222.663C856.115 228.488 860.837 233.211 866.663 233.211C872.488 233.211 877.211 228.488 877.211 222.663C877.205 216.84 872.486 212.121 866.663 212.115Z" fill="url(#paint2_linear_76_4)"/>
</g>
<g filter="url(#filter3_dii_76_4)">
<path d="M44.4999 49.8581C43.3924 50.9643 41.7473 51.3347 40.2725 50.8098C38.7978 50.285 37.7566 48.9586 37.597 47.4014L36.7116 38.7553L28.0627 37.8683C26.1499 37.6717 24.6378 36.1595 24.4412 34.2467L23.5542 25.5978L14.9041 24.7097C12.9909 24.5133 11.4784 23.0008 11.282 21.0876L10.057 9.15225C9.90901 7.71037 10.5415 6.29905 11.7162 5.44992C12.8909 4.60079 14.4293 4.44285 15.7521 5.03561C17.0748 5.62836 17.9808 6.88175 18.1288 8.32363L19.0197 16.9765L27.6726 17.8674C29.5854 18.064 31.0975 19.5762 31.2941 21.489L32.1812 30.1379L40.83 31.0249C42.7434 31.221 44.256 32.7337 44.4522 34.647L45.6732 46.5784C45.7964 47.7926 45.3653 48.9975 44.4999 49.8581Z" fill="url(#paint3_linear_76_4)"/>
</g>
<g filter="url(#filter4_dii_76_4)">
<path d="M1149.74 115.736C1148.47 114.815 1147.85 113.248 1148.14 111.71C1148.43 110.171 1149.57 108.935 1151.09 108.534L1159.49 106.307L1159.01 97.6255C1158.91 95.7055 1160.16 93.9754 1162.02 93.482L1170.43 91.2529L1169.95 82.5705C1169.84 80.6501 1171.1 78.9196 1172.96 78.4263L1184.56 75.3493C1185.96 74.9776 1187.45 75.3815 1188.47 76.4089C1189.5 77.4363 1189.89 78.9311 1189.51 80.3302C1189.14 81.7294 1188.04 82.8203 1186.64 83.1921L1178.23 85.4257L1178.71 94.1113C1178.81 96.0313 1177.55 97.7614 1175.69 98.2549L1167.29 100.484L1167.77 109.165C1167.87 111.086 1166.62 112.816 1164.76 113.309L1153.16 116.382C1151.98 116.693 1150.73 116.456 1149.74 115.736Z" fill="url(#paint4_linear_76_4)"/>
</g>
<g filter="url(#filter5_dii_76_4)">
<path d="M1265.97 500.967C1265.27 501.779 1264.27 502.278 1263.19 502.353C1262.12 502.428 1261.06 502.073 1260.25 501.367C1255.85 497.545 1249.19 498.011 1245.37 502.408C1241.55 506.805 1242.01 513.467 1246.41 517.289C1248.1 518.759 1248.28 521.321 1246.81 523.013C1245.34 524.704 1242.78 524.883 1241.08 523.413C1233.31 516.651 1232.48 504.863 1239.24 497.085C1246.01 489.306 1257.79 488.482 1265.57 495.244C1266.38 495.95 1266.88 496.949 1266.96 498.022C1267.03 499.096 1266.68 500.155 1265.97 500.967Z" fill="url(#paint5_linear_76_4)"/>
</g>
<defs>
<filter id="filter0_dii_76_4" x="770.445" y="857.443" width="65.3538" height="55.6617" filterUnits="userSpaceOnUse" color-interpolation-filters="sRGB">
<feFlood flood-opacity="0" result="BackgroundImageFix"/>
<feColorMatrix in="SourceAlpha" type="matrix" values="0 0 0 0 0 0 0 0 0 0 0 0 0 0 0 0 0 0 127 0" result="hardAlpha"/>
<feOffset dy="4.99764"/>
<feGaussianBlur stdDeviation="4.99764"/>
<feColorMatrix type="matrix" values="0 0 0 0 0.172 0 0 0 0 0.172 0 0 0 0 0.172 0 0 0 0.25 0"/>
<feBlend mode="normal" in2="BackgroundImageFix" result="effect1_dropShadow_76_4"/>
<feBlend mode="normal" in="SourceGraphic" in2="effect1_dropShadow_76_4" result="shape"/>
<feColorMatrix in="SourceAlpha" type="matrix" values="0 0 0 0 0 0 0 0 0 0 0 0 0 0 0 0 0 0 127 0" result="hardAlpha"/>
<feOffset dy="1.66588"/>
<feGaussianBlur stdDeviation="0.83294"/>
<feComposite in2="hardAlpha" operator="arithmetic" k2="-1" k3="1"/>
<feColorMatrix type="matrix" values="0 0 0 0 0.9976 0 0 0 0 0.9976 0 0 0 0 0.9976 0 0 0 1 0"/>
<feBlend mode="normal" in2="shape" result="effect2_innerShadow_76_4"/>
<feColorMatrix in="SourceAlpha" type="matrix" values="0 0 0 0 0 0 0 0 0 0 0 0 0 0 0 0 0 0 127 0" result="hardAlpha"/>
<feOffset dy="-1.66588"/>
<feGaussianBlur stdDeviation="0.83294"/>
<feComposite in2="hardAlpha" operator="arithmetic" k2="-1" k3="1"/>
<feColorMatrix type="matrix" values="0 0 0 0 0.688 0 0 0 0 0.688 0 0 0 0 0.688 0 0 0 1 0"/>
<feBlend mode="normal" in2="effect2_innerShadow_76_4" result="effect3_innerShadow_76_4"/>
</filter>
<filter id="filter1_dii_76_4" x="236.445" y="504.443" width="65.3538" height="55.6617" filterUnits="userSpaceOnUse" color-interpolation-filters="sRGB">
<feFlood flood-opacity="0" result="BackgroundImageFix"/>
<feColorMatrix in="SourceAlpha" type="matrix" values="0 0 0 0 0 0 0 0 0 0 0 0 0 0 0 0 0 0 127 0" result="hardAlpha"/>
<feOffset dy="4.99764"/>
<feGaussianBlur stdDeviation="4.99764"/>
<feColorMatrix type="matrix" values="0 0 0 0 0.172 0 0 0 0 0.172 0 0 0 0 0.172 0 0 0 0.25 0"/>
<feBlend mode="normal" in2="BackgroundImageFix" result="effect1_dropShadow_76_4"/>
<feBlend mode="normal" in="SourceGraphic" in2="effect1_dropShadow_76_4" result="shape"/>
<feColorMatrix in="SourceAlpha" type="matrix" values="0 0 0 0 0 0 0 0 0 0 0 0 0 0 0 0 0 0 127 0" result="hardAlpha"/>
<feOffset dy="1.66588"/>
<feGaussianBlur stdDeviation="0.83294"/>
<feComposite in2="hardAlpha" operator="arithmetic" k2="-1" k3="1"/>
<feColorMatrix type="matrix" values="0 0 0 0 0.9976 0 0 0 0 0.9976 0 0 0 0 0.9976 0 0 0 1 0"/>
<feBlend mode="normal" in2="shape" result="effect2_innerShadow_76_4"/>
<feColorMatrix in="SourceAlpha" type="matrix" values="0 0 0 0 0 0 0 0 0 0 0 0 0 0 0 0 0 0 127 0" result="hardAlpha"/>
<feOffset dy="-1.66588"/>
<feGaussianBlur stdDeviation="0.83294"/>
<feComposite in2="hardAlpha" operator="arithmetic" k2="-1" k3="1"/>
<feColorMatrix type="matrix" values="0 0 0 0 0.688 0 0 0 0 0.688 0 0 0 0 0.688 0 0 0 1 0"/>
<feBlend mode="normal" in2="effect2_innerShadow_76_4" result="effect3_innerShadow_76_4"/>
</filter>
<filter id="filter2_dii_76_4" x="838.047" y="199.023" width="57.2319" height="57.2318" filterUnits="userSpaceOnUse" color-interpolation-filters="sRGB">
<feFlood flood-opacity="0" result="BackgroundImageFix"/>
<feColorMatrix in="SourceAlpha" type="matrix" values="0 0 0 0 0 0 0 0 0 0 0 0 0 0 0 0 0 0 127 0" result="hardAlpha"/>
<feOffset dy="4.97668"/>
<feGaussianBlur stdDeviation="4.97668"/>
<feColorMatrix type="matrix" values="0 0 0 0 0.172 0 0 0 0 0.172 0 0 0 0 0.172 0 0 0 0.25 0"/>
<feBlend mode="normal" in2="BackgroundImageFix" result="effect1_dropShadow_76_4"/>
<feBlend mode="normal" in="SourceGraphic" in2="effect1_dropShadow_76_4" result="shape"/>
<feColorMatrix in="SourceAlpha" type="matrix" values="0 0 0 0 0 0 0 0 0 0 0 0 0 0 0 0 0 0 127 0" result="hardAlpha"/>
<feOffset dy="1.65889"/>
<feGaussianBlur stdDeviation="0.829446"/>
<feComposite in2="hardAlpha" operator="arithmetic" k2="-1" k3="1"/>
<feColorMatrix type="matrix" values="0 0 0 0 0.9976 0 0 0 0 0.9976 0 0 0 0 0.9976 0 0 0 1 0"/>
<feBlend mode="normal" in2="shape" result="effect2_innerShadow_76_4"/>
<feColorMatrix in="SourceAlpha" type="matrix" values="0 0 0 0 0 0 0 0 0 0 0 0 0 0 0 0 0 0 127 0" result="hardAlpha"/>
<feOffset dy="-1.65889"/>
<feGaussianBlur stdDeviation="0.829446"/>
<feComposite in2="hardAlpha" operator="arithmetic" k2="-1" k3="1"/>
<feColorMatrix type="matrix" values="0 0 0 0 0.688 0 0 0 0 0.688 0 0 0 0 0.688 0 0 0 1 0"/>
<feBlend mode="normal" in2="effect2_innerShadow_76_4" result="effect3_innerShadow_76_4"/>
</filter>
<filter id="filter3_dii_76_4" x="0.659551" y="-0.00735235" width="54.4106" height="65.1167" filterUnits="userSpaceOnUse" color-interpolation-filters="sRGB">
<feFlood flood-opacity="0" result="BackgroundImageFix"/>
<feColorMatrix in="SourceAlpha" type="matrix" values="0 0 0 0 0 0 0 0 0 0 0 0 0 0 0 0 0 0 127 0" result="hardAlpha"/>
<feOffset dy="4.68817"/>
<feGaussianBlur stdDeviation="4.68817"/>
<feColorMatrix type="matrix" values="0 0 0 0 0.172 0 0 0 0 0.172 0 0 0 0 0.172 0 0 0 0.25 0"/>
<feBlend mode="normal" in2="BackgroundImageFix" result="effect1_dropShadow_76_4"/>
<feBlend mode="normal" in="SourceGraphic" in2="effect1_dropShadow_76_4" result="shape"/>
<feColorMatrix in="SourceAlpha" type="matrix" values="0 0 0 0 0 0 0 0 0 0 0 0 0 0 0 0 0 0 127 0" result="hardAlpha"/>
<feOffset dy="1.56272"/>
<feGaussianBlur stdDeviation="0.781362"/>
<feComposite in2="hardAlpha" operator="arithmetic" k2="-1" k3="1"/>
<feColorMatrix type="matrix" values="0 0 0 0 0.9976 0 0 0 0 0.9976 0 0 0 0 0.9976 0 0 0 1 0"/>
<feBlend mode="normal" in2="shape" result="effect2_innerShadow_76_4"/>
<feColorMatrix in="SourceAlpha" type="matrix" values="0 0 0 0 0 0 0 0 0 0 0 0 0 0 0 0 0 0 127 0" result="hardAlpha"/>
<feOffset dy="-1.56272"/>
<feGaussianBlur stdDeviation="0.781362"/>
<feComposite in2="hardAlpha" operator="arithmetic" k2="-1" k3="1"/>
<feColorMatrix type="matrix" values="0 0 0 0 0.688 0 0 0 0 0.688 0 0 0 0 0.688 0 0 0 1 0"/>
<feBlend mode="normal" in2="effect2_innerShadow_76_4" result="effect3_innerShadow_76_4"/>
</filter>
<filter id="filter4_dii_76_4" x="1138.69" y="70.5253" width="60.3376" height="60.0551" filterUnits="userSpaceOnUse" color-interpolation-filters="sRGB">
<feFlood flood-opacity="0" result="BackgroundImageFix"/>
<feColorMatrix in="SourceAlpha" type="matrix" values="0 0 0 0 0 0 0 0 0 0 0 0 0 0 0 0 0 0 127 0" result="hardAlpha"/>
<feOffset dy="4.68817"/>
<feGaussianBlur stdDeviation="4.68817"/>
<feColorMatrix type="matrix" values="0 0 0 0 0.172 0 0 0 0 0.172 0 0 0 0 0.172 0 0 0 0.25 0"/>
<feBlend mode="normal" in2="BackgroundImageFix" result="effect1_dropShadow_76_4"/>
<feBlend mode="normal" in="SourceGraphic" in2="effect1_dropShadow_76_4" result="shape"/>
<feColorMatrix in="SourceAlpha" type="matrix" values="0 0 0 0 0 0 0 0 0 0 0 0 0 0 0 0 0 0 127 0" result="hardAlpha"/>
<feOffset dy="1.56272"/>
<feGaussianBlur stdDeviation="0.781362"/>
<feComposite in2="hardAlpha" operator="arithmetic" k2="-1" k3="1"/>
<feColorMatrix type="matrix" values="0 0 0 0 0.9976 0 0 0 0 0.9976 0 0 0 0 0.9976 0 0 0 1 0"/>
<feBlend mode="normal" in2="shape" result="effect2_innerShadow_76_4"/>
<feColorMatrix in="SourceAlpha" type="matrix" values="0 0 0 0 0 0 0 0 0 0 0 0 0 0 0 0 0 0 127 0" result="hardAlpha"/>
<feOffset dy="-1.56272"/>
<feGaussianBlur stdDeviation="0.781362"/>
<feComposite in2="hardAlpha" operator="arithmetic" k2="-1" k3="1"/>
<feColorMatrix type="matrix" values="0 0 0 0 0.688 0 0 0 0 0.688 0 0 0 0 0.688 0 0 0 1 0"/>
<feBlend mode="normal" in2="effect2_innerShadow_76_4" result="effect3_innerShadow_76_4"/>
</filter>
<filter id="filter5_dii_76_4" x="1226.66" y="486.663" width="48.3134" height="49.754" filterUnits="userSpaceOnUse" color-interpolation-filters="sRGB">
<feFlood flood-opacity="0" result="BackgroundImageFix"/>
<feColorMatrix in="SourceAlpha" type="matrix" values="0 0 0 0 0 0 0 0 0 0 0 0 0 0 0 0 0 0 127 0" result="hardAlpha"/>
<feOffset dy="4.00292"/>
<feGaussianBlur stdDeviation="4.00292"/>
<feColorMatrix type="matrix" values="0 0 0 0 0.172 0 0 0 0 0.172 0 0 0 0 0.172 0 0 0 0.25 0"/>
<feBlend mode="normal" in2="BackgroundImageFix" result="effect1_dropShadow_76_4"/>
<feBlend mode="normal" in="SourceGraphic" in2="effect1_dropShadow_76_4" result="shape"/>
<feColorMatrix in="SourceAlpha" type="matrix" values="0 0 0 0 0 0 0 0 0 0 0 0 0 0 0 0 0 0 127 0" result="hardAlpha"/>
<feOffset dy="1.33431"/>
<feGaussianBlur stdDeviation="0.667153"/>
<feComposite in2="hardAlpha" operator="arithmetic" k2="-1" k3="1"/>
<feColorMatrix type="matrix" values="0 0 0 0 0.9976 0 0 0 0 0.9976 0 0 0 0 0.9976 0 0 0 1 0"/>
<feBlend mode="normal" in2="shape" result="effect2_innerShadow_76_4"/>
<feColorMatrix in="SourceAlpha" type="matrix" values="0 0 0 0 0 0 0 0 0 0 0 0 0 0 0 0 0 0 127 0" result="hardAlpha"/>
<feOffset dy="-1.33431"/>
<feGaussianBlur stdDeviation="0.667153"/>
<feComposite in2="hardAlpha" operator="arithmetic" k2="-1" k3="1"/>
<feColorMatrix type="matrix" values="0 0 0 0 0.688 0 0 0 0 0.688 0 0 0 0 0.688 0 0 0 1 0"/>
<feBlend mode="normal" in2="effect2_innerShadow_76_4" result="effect3_innerShadow_76_4"/>
</filter>
<linearGradient id="paint0_linear_76_4" x1="809.41" y1="867.383" x2="796.536" y2="902.754" gradientUnits="userSpaceOnUse">
<stop stop-color="#F6F6F6"/>
<stop offset="1" stop-color="#B8B8B8"/>
</linearGradient>
<linearGradient id="paint1_linear_76_4" x1="275.41" y1="514.383" x2="262.536" y2="549.754" gradientUnits="userSpaceOnUse">
<stop stop-color="#F6F6F6"/>
<stop offset="1" stop-color="#B8B8B8"/>
</linearGradient>
<linearGradient id="paint2_linear_76_4" x1="866.663" y1="204" x2="866.663" y2="241.325" gradientUnits="userSpaceOnUse">
<stop stop-color="#F6F6F6"/>
<stop offset="1" stop-color="#B8B8B8"/>
</linearGradient>
<linearGradient id="paint3_linear_76_4" x1="8.54655" y1="8.54659" x2="47.179" y2="47.179" gradientUnits="userSpaceOnUse">
<stop stop-color="#F6F6F6"/>
<stop offset="1" stop-color="#B8B8B8"/>
</linearGradient>
<linearGradient id="paint4_linear_76_4" x1="1184.92" y1="73.7627" x2="1152.81" y2="117.963" gradientUnits="userSpaceOnUse">
<stop stop-color="#F6F6F6"/>
<stop offset="1" stop-color="#B8B8B8"/>
</linearGradient>
<linearGradient id="paint5_linear_76_4" x1="1239.24" y1="497.085" x2="1256.39" y2="511.99" gradientUnits="userSpaceOnUse">
<stop stop-color="#F6F6F6"/>
<stop offset="1" stop-color="#B8B8B8"/>
</linearGradient>
</defs>
</svg>
