<svg width="1366" height="744" viewBox="0 0 1366 744" fill="none" xmlns="http://www.w3.org/2000/svg">
<g filter="url(#filter0_dii_70_45)">
<path d="M834.111 727.867C832.021 727.107 830.934 724.806 831.672 722.708L841.363 695.152C842.107 693.039 844.423 691.929 846.536 692.671L874.092 702.363C875.64 702.907 876.708 704.331 876.798 705.969C876.887 707.608 875.98 709.139 874.501 709.849L837.253 727.713C836.269 728.185 835.136 728.24 834.111 727.867ZM847.672 701.672L842.577 716.161L862.162 706.769L847.672 701.672Z" fill="url(#paint0_linear_70_45)"/>
</g>
<g filter="url(#filter1_dii_70_45)">
<path d="M1338 574.957C1336.37 574.64 1335.1 573.363 1334.79 571.732C1334.48 570.101 1335.2 568.445 1336.6 567.553C1337.39 567.049 1338.2 566.637 1338.91 566.276C1341.05 565.192 1341.45 564.86 1341.61 564.055C1341.77 563.249 1341.52 562.791 1339.94 560.986C1338.17 558.951 1335.48 555.876 1336.42 551.034C1337.36 546.193 1341 544.348 1343.41 543.126C1345.55 542.042 1345.95 541.71 1346.11 540.905C1346.26 540.1 1346.02 539.64 1344.44 537.831C1342.67 535.795 1339.98 532.72 1340.92 527.879C1341.87 523.039 1345.5 521.191 1347.91 519.969C1348.41 519.719 1348.87 519.483 1349.27 519.246C1351.21 518.111 1353.69 518.758 1354.83 520.69C1355.96 522.622 1355.32 525.109 1353.38 526.243C1352.77 526.608 1352.17 526.911 1351.59 527.206C1349.45 528.29 1349.05 528.621 1348.89 529.431C1348.73 530.241 1348.98 530.696 1350.55 532.505C1352.33 534.541 1355.01 537.616 1354.07 542.457C1353.13 547.297 1349.49 549.143 1347.08 550.366C1344.95 551.45 1344.54 551.782 1344.39 552.587C1344.23 553.392 1344.48 553.852 1346.05 555.657C1347.83 557.691 1350.51 560.767 1349.57 565.607C1348.63 570.446 1344.99 572.293 1342.58 573.516C1341.98 573.821 1341.42 574.109 1340.96 574.399C1340.08 574.957 1339.02 575.157 1338 574.957Z" fill="url(#paint1_linear_70_45)"/>
</g>
<g filter="url(#filter2_dii_70_45)">
<path d="M1177.66 114.325C1170.11 114.325 1163.31 109.778 1160.42 102.805C1157.53 95.8309 1159.13 87.804 1164.47 82.4666C1169.8 77.1292 1177.83 75.5326 1184.8 78.4211C1191.78 81.3097 1196.33 88.1146 1196.33 95.6628C1196.31 105.965 1187.96 114.313 1177.66 114.325ZM1177.66 85.1146C1171.84 85.1146 1167.11 89.8372 1167.11 95.6628C1167.11 101.488 1171.84 106.211 1177.66 106.211C1183.49 106.211 1188.21 101.488 1188.21 95.6628C1188.2 89.8397 1183.49 85.1207 1177.66 85.1146Z" fill="url(#paint2_linear_70_45)"/>
</g>
<g filter="url(#filter3_dii_70_45)">
<path d="M9.93643 373.197C8.89207 372.937 7.99384 372.273 7.43968 371.35C6.88551 370.427 6.72079 369.322 6.98179 368.278L14.0481 339.937C14.5901 337.762 16.792 336.439 18.966 336.981C21.1401 337.524 22.4631 339.725 21.9211 341.899L14.8548 370.241C14.595 371.285 13.9308 372.184 13.0083 372.738C12.0858 373.293 10.9808 373.458 9.93643 373.197Z" fill="url(#paint3_linear_70_45)"/>
</g>
<g filter="url(#filter4_dii_70_45)">
<path d="M213.5 712.858C212.392 713.964 210.747 714.335 209.273 713.81C207.798 713.285 206.757 711.959 206.597 710.401L205.712 701.755L197.063 700.868C195.15 700.672 193.638 699.16 193.441 697.247L192.554 688.598L183.904 687.71C181.991 687.513 180.478 686.001 180.282 684.088L179.057 672.152C178.909 670.71 179.541 669.299 180.716 668.45C181.891 667.601 183.429 667.443 184.752 668.036C186.075 668.628 186.981 669.882 187.129 671.324L188.02 679.976L196.673 680.867C198.585 681.064 200.098 682.576 200.294 684.489L201.181 693.138L209.83 694.025C211.743 694.221 213.256 695.734 213.452 697.647L214.673 709.578C214.796 710.793 214.365 711.998 213.5 712.858Z" fill="url(#paint4_linear_70_45)"/>
</g>
<g filter="url(#filter5_dii_70_45)">
<path d="M277.972 17.9671C277.266 18.7792 276.266 19.2778 275.193 19.3529C274.12 19.4279 273.06 19.0734 272.248 18.3673C267.852 14.5453 261.189 15.0112 257.367 19.4079C253.545 23.8045 254.011 30.467 258.408 34.289C260.099 35.759 260.278 38.3215 258.808 40.0125C257.338 41.7035 254.776 41.8827 253.085 40.4127C245.306 33.6508 244.482 21.8633 251.244 14.0846C258.005 6.3059 269.793 5.48164 277.572 12.2436C278.384 12.9495 278.882 13.949 278.957 15.0224C279.033 16.0958 278.678 17.155 277.972 17.9671Z" fill="url(#paint5_linear_70_45)"/>
</g>
<defs>
<filter id="filter0_dii_70_45" x="821.445" y="687.443" width="65.3538" height="55.6617" filterUnits="userSpaceOnUse" color-interpolation-filters="sRGB">
<feFlood flood-opacity="0" result="BackgroundImageFix"/>
<feColorMatrix in="SourceAlpha" type="matrix" values="0 0 0 0 0 0 0 0 0 0 0 0 0 0 0 0 0 0 127 0" result="hardAlpha"/>
<feOffset dy="4.99764"/>
<feGaussianBlur stdDeviation="4.99764"/>
<feColorMatrix type="matrix" values="0 0 0 0 0.172 0 0 0 0 0.172 0 0 0 0 0.172 0 0 0 0.25 0"/>
<feBlend mode="normal" in2="BackgroundImageFix" result="effect1_dropShadow_70_45"/>
<feBlend mode="normal" in="SourceGraphic" in2="effect1_dropShadow_70_45" result="shape"/>
<feColorMatrix in="SourceAlpha" type="matrix" values="0 0 0 0 0 0 0 0 0 0 0 0 0 0 0 0 0 0 127 0" result="hardAlpha"/>
<feOffset dy="1.66588"/>
<feGaussianBlur stdDeviation="0.83294"/>
<feComposite in2="hardAlpha" operator="arithmetic" k2="-1" k3="1"/>
<feColorMatrix type="matrix" values="0 0 0 0 0.9976 0 0 0 0 0.9976 0 0 0 0 0.9976 0 0 0 1 0"/>
<feBlend mode="normal" in2="shape" result="effect2_innerShadow_70_45"/>
<feColorMatrix in="SourceAlpha" type="matrix" values="0 0 0 0 0 0 0 0 0 0 0 0 0 0 0 0 0 0 127 0" result="hardAlpha"/>
<feOffset dy="-1.66588"/>
<feGaussianBlur stdDeviation="0.83294"/>
<feComposite in2="hardAlpha" operator="arithmetic" k2="-1" k3="1"/>
<feColorMatrix type="matrix" values="0 0 0 0 0.688 0 0 0 0 0.688 0 0 0 0 0.688 0 0 0 1 0"/>
<feBlend mode="normal" in2="effect2_innerShadow_70_45" result="effect3_innerShadow_70_45"/>
</filter>
<filter id="filter1_dii_70_45" x="1324.92" y="513.784" width="40.2767" height="75.9568" filterUnits="userSpaceOnUse" color-interpolation-filters="sRGB">
<feFlood flood-opacity="0" result="BackgroundImageFix"/>
<feColorMatrix in="SourceAlpha" type="matrix" values="0 0 0 0 0 0 0 0 0 0 0 0 0 0 0 0 0 0 127 0" result="hardAlpha"/>
<feOffset dy="4.90268"/>
<feGaussianBlur stdDeviation="4.90268"/>
<feColorMatrix type="matrix" values="0 0 0 0 0.172 0 0 0 0 0.172 0 0 0 0 0.172 0 0 0 0.25 0"/>
<feBlend mode="normal" in2="BackgroundImageFix" result="effect1_dropShadow_70_45"/>
<feBlend mode="normal" in="SourceGraphic" in2="effect1_dropShadow_70_45" result="shape"/>
<feColorMatrix in="SourceAlpha" type="matrix" values="0 0 0 0 0 0 0 0 0 0 0 0 0 0 0 0 0 0 127 0" result="hardAlpha"/>
<feOffset dy="1.63423"/>
<feGaussianBlur stdDeviation="0.817114"/>
<feComposite in2="hardAlpha" operator="arithmetic" k2="-1" k3="1"/>
<feColorMatrix type="matrix" values="0 0 0 0 0.9976 0 0 0 0 0.9976 0 0 0 0 0.9976 0 0 0 1 0"/>
<feBlend mode="normal" in2="shape" result="effect2_innerShadow_70_45"/>
<feColorMatrix in="SourceAlpha" type="matrix" values="0 0 0 0 0 0 0 0 0 0 0 0 0 0 0 0 0 0 127 0" result="hardAlpha"/>
<feOffset dy="-1.63423"/>
<feGaussianBlur stdDeviation="0.817114"/>
<feComposite in2="hardAlpha" operator="arithmetic" k2="-1" k3="1"/>
<feColorMatrix type="matrix" values="0 0 0 0 0.688 0 0 0 0 0.688 0 0 0 0 0.688 0 0 0 1 0"/>
<feBlend mode="normal" in2="effect2_innerShadow_70_45" result="effect3_innerShadow_70_45"/>
</filter>
<filter id="filter2_dii_70_45" x="1149.05" y="72.0233" width="57.2319" height="57.2318" filterUnits="userSpaceOnUse" color-interpolation-filters="sRGB">
<feFlood flood-opacity="0" result="BackgroundImageFix"/>
<feColorMatrix in="SourceAlpha" type="matrix" values="0 0 0 0 0 0 0 0 0 0 0 0 0 0 0 0 0 0 127 0" result="hardAlpha"/>
<feOffset dy="4.97668"/>
<feGaussianBlur stdDeviation="4.97668"/>
<feColorMatrix type="matrix" values="0 0 0 0 0.172 0 0 0 0 0.172 0 0 0 0 0.172 0 0 0 0.25 0"/>
<feBlend mode="normal" in2="BackgroundImageFix" result="effect1_dropShadow_70_45"/>
<feBlend mode="normal" in="SourceGraphic" in2="effect1_dropShadow_70_45" result="shape"/>
<feColorMatrix in="SourceAlpha" type="matrix" values="0 0 0 0 0 0 0 0 0 0 0 0 0 0 0 0 0 0 127 0" result="hardAlpha"/>
<feOffset dy="1.65889"/>
<feGaussianBlur stdDeviation="0.829446"/>
<feComposite in2="hardAlpha" operator="arithmetic" k2="-1" k3="1"/>
<feColorMatrix type="matrix" values="0 0 0 0 0.9976 0 0 0 0 0.9976 0 0 0 0 0.9976 0 0 0 1 0"/>
<feBlend mode="normal" in2="shape" result="effect2_innerShadow_70_45"/>
<feColorMatrix in="SourceAlpha" type="matrix" values="0 0 0 0 0 0 0 0 0 0 0 0 0 0 0 0 0 0 127 0" result="hardAlpha"/>
<feOffset dy="-1.65889"/>
<feGaussianBlur stdDeviation="0.829446"/>
<feComposite in2="hardAlpha" operator="arithmetic" k2="-1" k3="1"/>
<feColorMatrix type="matrix" values="0 0 0 0 0.688 0 0 0 0 0.688 0 0 0 0 0.688 0 0 0 1 0"/>
<feBlend mode="normal" in2="effect2_innerShadow_70_45" result="effect3_innerShadow_70_45"/>
</filter>
<filter id="filter3_dii_70_45" x="0.802122" y="333.831" width="27.2988" height="48.5748" filterUnits="userSpaceOnUse" color-interpolation-filters="sRGB">
<feFlood flood-opacity="0" result="BackgroundImageFix"/>
<feColorMatrix in="SourceAlpha" type="matrix" values="0 0 0 0 0 0 0 0 0 0 0 0 0 0 0 0 0 0 127 0" result="hardAlpha"/>
<feOffset dy="3.02924"/>
<feGaussianBlur stdDeviation="3.02924"/>
<feColorMatrix type="matrix" values="0 0 0 0 0.172 0 0 0 0 0.172 0 0 0 0 0.172 0 0 0 0.25 0"/>
<feBlend mode="normal" in2="BackgroundImageFix" result="effect1_dropShadow_70_45"/>
<feBlend mode="normal" in="SourceGraphic" in2="effect1_dropShadow_70_45" result="shape"/>
<feColorMatrix in="SourceAlpha" type="matrix" values="0 0 0 0 0 0 0 0 0 0 0 0 0 0 0 0 0 0 127 0" result="hardAlpha"/>
<feOffset dy="1.00975"/>
<feGaussianBlur stdDeviation="0.504873"/>
<feComposite in2="hardAlpha" operator="arithmetic" k2="-1" k3="1"/>
<feColorMatrix type="matrix" values="0 0 0 0 0.9976 0 0 0 0 0.9976 0 0 0 0 0.9976 0 0 0 1 0"/>
<feBlend mode="normal" in2="shape" result="effect2_innerShadow_70_45"/>
<feColorMatrix in="SourceAlpha" type="matrix" values="0 0 0 0 0 0 0 0 0 0 0 0 0 0 0 0 0 0 127 0" result="hardAlpha"/>
<feOffset dy="-1.00975"/>
<feGaussianBlur stdDeviation="0.504873"/>
<feComposite in2="hardAlpha" operator="arithmetic" k2="-1" k3="1"/>
<feColorMatrix type="matrix" values="0 0 0 0 0.688 0 0 0 0 0.688 0 0 0 0 0.688 0 0 0 1 0"/>
<feBlend mode="normal" in2="effect2_innerShadow_70_45" result="effect3_innerShadow_70_45"/>
</filter>
<filter id="filter4_dii_70_45" x="169.66" y="662.993" width="54.4106" height="65.1167" filterUnits="userSpaceOnUse" color-interpolation-filters="sRGB">
<feFlood flood-opacity="0" result="BackgroundImageFix"/>
<feColorMatrix in="SourceAlpha" type="matrix" values="0 0 0 0 0 0 0 0 0 0 0 0 0 0 0 0 0 0 127 0" result="hardAlpha"/>
<feOffset dy="4.68817"/>
<feGaussianBlur stdDeviation="4.68817"/>
<feColorMatrix type="matrix" values="0 0 0 0 0.172 0 0 0 0 0.172 0 0 0 0 0.172 0 0 0 0.25 0"/>
<feBlend mode="normal" in2="BackgroundImageFix" result="effect1_dropShadow_70_45"/>
<feBlend mode="normal" in="SourceGraphic" in2="effect1_dropShadow_70_45" result="shape"/>
<feColorMatrix in="SourceAlpha" type="matrix" values="0 0 0 0 0 0 0 0 0 0 0 0 0 0 0 0 0 0 127 0" result="hardAlpha"/>
<feOffset dy="1.56272"/>
<feGaussianBlur stdDeviation="0.781362"/>
<feComposite in2="hardAlpha" operator="arithmetic" k2="-1" k3="1"/>
<feColorMatrix type="matrix" values="0 0 0 0 0.9976 0 0 0 0 0.9976 0 0 0 0 0.9976 0 0 0 1 0"/>
<feBlend mode="normal" in2="shape" result="effect2_innerShadow_70_45"/>
<feColorMatrix in="SourceAlpha" type="matrix" values="0 0 0 0 0 0 0 0 0 0 0 0 0 0 0 0 0 0 127 0" result="hardAlpha"/>
<feOffset dy="-1.56272"/>
<feGaussianBlur stdDeviation="0.781362"/>
<feComposite in2="hardAlpha" operator="arithmetic" k2="-1" k3="1"/>
<feColorMatrix type="matrix" values="0 0 0 0 0.688 0 0 0 0 0.688 0 0 0 0 0.688 0 0 0 1 0"/>
<feBlend mode="normal" in2="effect2_innerShadow_70_45" result="effect3_innerShadow_70_45"/>
</filter>
<filter id="filter5_dii_70_45" x="238.66" y="3.6627" width="48.3134" height="49.754" filterUnits="userSpaceOnUse" color-interpolation-filters="sRGB">
<feFlood flood-opacity="0" result="BackgroundImageFix"/>
<feColorMatrix in="SourceAlpha" type="matrix" values="0 0 0 0 0 0 0 0 0 0 0 0 0 0 0 0 0 0 127 0" result="hardAlpha"/>
<feOffset dy="4.00292"/>
<feGaussianBlur stdDeviation="4.00292"/>
<feColorMatrix type="matrix" values="0 0 0 0 0.172 0 0 0 0 0.172 0 0 0 0 0.172 0 0 0 0.25 0"/>
<feBlend mode="normal" in2="BackgroundImageFix" result="effect1_dropShadow_70_45"/>
<feBlend mode="normal" in="SourceGraphic" in2="effect1_dropShadow_70_45" result="shape"/>
<feColorMatrix in="SourceAlpha" type="matrix" values="0 0 0 0 0 0 0 0 0 0 0 0 0 0 0 0 0 0 127 0" result="hardAlpha"/>
<feOffset dy="1.33431"/>
<feGaussianBlur stdDeviation="0.667153"/>
<feComposite in2="hardAlpha" operator="arithmetic" k2="-1" k3="1"/>
<feColorMatrix type="matrix" values="0 0 0 0 0.9976 0 0 0 0 0.9976 0 0 0 0 0.9976 0 0 0 1 0"/>
<feBlend mode="normal" in2="shape" result="effect2_innerShadow_70_45"/>
<feColorMatrix in="SourceAlpha" type="matrix" values="0 0 0 0 0 0 0 0 0 0 0 0 0 0 0 0 0 0 127 0" result="hardAlpha"/>
<feOffset dy="-1.33431"/>
<feGaussianBlur stdDeviation="0.667153"/>
<feComposite in2="hardAlpha" operator="arithmetic" k2="-1" k3="1"/>
<feColorMatrix type="matrix" values="0 0 0 0 0.688 0 0 0 0 0.688 0 0 0 0 0.688 0 0 0 1 0"/>
<feBlend mode="normal" in2="effect2_innerShadow_70_45" result="effect3_innerShadow_70_45"/>
</filter>
<linearGradient id="paint0_linear_70_45" x1="860.41" y1="697.383" x2="847.536" y2="732.754" gradientUnits="userSpaceOnUse">
<stop stop-color="#F6F6F6"/>
<stop offset="1" stop-color="#B8B8B8"/>
</linearGradient>
<linearGradient id="paint1_linear_70_45" x1="1350.74" y1="518.497" x2="1339.7" y2="575.287" gradientUnits="userSpaceOnUse">
<stop stop-color="#F6F6F6"/>
<stop offset="1" stop-color="#B8B8B8"/>
</linearGradient>
<linearGradient id="paint2_linear_70_45" x1="1177.66" y1="77" x2="1177.66" y2="114.325" gradientUnits="userSpaceOnUse">
<stop stop-color="#F6F6F6"/>
<stop offset="1" stop-color="#B8B8B8"/>
</linearGradient>
<linearGradient id="paint3_linear_70_45" x1="18.966" y1="336.981" x2="9.93643" y2="373.197" gradientUnits="userSpaceOnUse">
<stop stop-color="#F6F6F6"/>
<stop offset="1" stop-color="#B8B8B8"/>
</linearGradient>
<linearGradient id="paint4_linear_70_45" x1="177.547" y1="671.547" x2="216.179" y2="710.179" gradientUnits="userSpaceOnUse">
<stop stop-color="#F6F6F6"/>
<stop offset="1" stop-color="#B8B8B8"/>
</linearGradient>
<linearGradient id="paint5_linear_70_45" x1="251.244" y1="14.0846" x2="268.39" y2="28.9898" gradientUnits="userSpaceOnUse">
<stop stop-color="#F6F6F6"/>
<stop offset="1" stop-color="#B8B8B8"/>
</linearGradient>
</defs>
</svg>
