<svg width="1040" height="444" viewBox="0 0 1040 444" fill="none" xmlns="http://www.w3.org/2000/svg">
<g filter="url(#filter0_dii_70_43)">
<path d="M681.11 328.867C679.021 328.107 677.934 325.806 678.671 323.708L688.363 296.152C689.107 294.039 691.423 292.929 693.536 293.671L721.092 303.363C722.64 303.907 723.708 305.331 723.798 306.969C723.887 308.608 722.98 310.139 721.501 310.849L684.253 328.713C683.269 329.185 682.136 329.24 681.11 328.867ZM694.672 302.672L689.577 317.161L709.162 307.769L694.672 302.672Z" fill="url(#paint0_linear_70_43)"/>
</g>
<g filter="url(#filter1_dii_70_43)">
<path d="M963.004 370.957C961.374 370.64 960.102 369.363 959.792 367.732C959.482 366.101 960.197 364.445 961.597 363.553C962.388 363.049 963.198 362.637 963.912 362.276C966.047 361.192 966.452 360.86 966.608 360.055C966.765 359.249 966.516 358.791 964.94 356.986C963.165 354.951 960.482 351.876 961.423 347.034C962.364 342.193 966.003 340.348 968.412 339.126C970.547 338.042 970.952 337.71 971.108 336.905C971.265 336.1 971.016 335.64 969.441 333.831C967.666 331.795 964.983 328.72 965.924 323.879C966.865 319.039 970.505 317.191 972.913 315.969C973.406 315.719 973.871 315.483 974.274 315.246C976.206 314.111 978.692 314.758 979.827 316.69C980.962 318.622 980.315 321.109 978.383 322.243C977.765 322.608 977.165 322.911 976.585 323.206C974.449 324.29 974.045 324.621 973.888 325.431C973.73 326.241 973.98 326.696 975.555 328.505C977.33 330.541 980.012 333.616 979.072 338.457C978.131 343.297 974.491 345.143 972.083 346.366C969.947 347.45 969.543 347.782 969.386 348.587C969.23 349.392 969.479 349.852 971.054 351.657C972.83 353.691 975.512 356.767 974.572 361.607C973.631 366.446 969.991 368.293 967.583 369.516C966.982 369.821 966.416 370.109 965.955 370.399C965.08 370.957 964.023 371.157 963.004 370.957Z" fill="url(#paint1_linear_70_43)"/>
</g>
<g filter="url(#filter2_dii_70_43)">
<path d="M1010.66 46.3251C1003.11 46.3251 996.31 41.7782 993.421 34.8046C990.533 27.831 992.129 19.804 997.467 14.4666C1002.8 9.12924 1010.83 7.53258 1017.8 10.4211C1024.78 13.3097 1029.33 20.1146 1029.33 27.6628C1029.31 37.9648 1020.96 46.3133 1010.66 46.3251ZM1010.66 17.1146C1004.84 17.1146 1000.11 21.8372 1000.11 27.6628C1000.11 33.4885 1004.84 38.2111 1010.66 38.2111C1016.49 38.2111 1021.21 33.4885 1021.21 27.6628C1021.2 21.8397 1016.49 17.1207 1010.66 17.1146Z" fill="url(#paint2_linear_70_43)"/>
</g>
<g filter="url(#filter3_dii_70_43)">
<path d="M9.93655 329.197C8.89219 328.937 7.99397 328.273 7.4398 327.35C6.88563 326.427 6.72091 325.322 6.98191 324.278L14.0482 295.937C14.5902 293.762 16.7921 292.439 18.9662 292.981C21.1402 293.524 22.4632 295.725 21.9212 297.899L14.8549 326.241C14.5951 327.285 13.9309 328.184 13.0084 328.738C12.0859 329.293 10.9809 329.458 9.93655 329.197Z" fill="url(#paint3_linear_70_43)"/>
</g>
<g filter="url(#filter4_dii_70_43)">
<path d="M367.5 427.858C366.392 428.964 364.747 429.335 363.273 428.81C361.798 428.285 360.757 426.959 360.597 425.401L359.712 416.755L351.063 415.868C349.15 415.672 347.638 414.16 347.441 412.247L346.554 403.598L337.904 402.71C335.991 402.513 334.478 401.001 334.282 399.088L333.057 387.152C332.909 385.71 333.541 384.299 334.716 383.45C335.891 382.601 337.429 382.443 338.752 383.036C340.075 383.628 340.981 384.882 341.129 386.324L342.02 394.976L350.673 395.867C352.585 396.064 354.098 397.576 354.294 399.489L355.181 408.138L363.83 409.025C365.743 409.221 367.256 410.734 367.452 412.647L368.673 424.578C368.796 425.793 368.365 426.998 367.5 427.858Z" fill="url(#paint4_linear_70_43)"/>
</g>
<g filter="url(#filter5_dii_70_43)">
<path d="M40.9719 17.9671C40.266 18.7792 39.2665 19.2778 38.1931 19.3529C37.1196 19.428 36.0604 19.0734 35.2484 18.3673C30.8517 14.5454 24.1892 15.0112 20.3673 19.4079C16.5453 23.8046 17.0112 30.4671 21.4079 34.289C23.0989 35.759 23.2781 38.3215 21.8081 40.0125C20.3381 41.7035 17.7756 41.8827 16.0846 40.4127C8.30588 33.6508 7.48162 21.8633 14.2435 14.0846C21.0055 6.30591 32.793 5.48165 40.5717 12.2436C41.3838 12.9495 41.8824 13.949 41.9575 15.0224C42.0326 16.0958 41.6779 17.155 40.9719 17.9671Z" fill="url(#paint5_linear_70_43)"/>
</g>
<defs>
<filter id="filter0_dii_70_43" x="668.445" y="288.443" width="65.3537" height="55.6617" filterUnits="userSpaceOnUse" color-interpolation-filters="sRGB">
<feFlood flood-opacity="0" result="BackgroundImageFix"/>
<feColorMatrix in="SourceAlpha" type="matrix" values="0 0 0 0 0 0 0 0 0 0 0 0 0 0 0 0 0 0 127 0" result="hardAlpha"/>
<feOffset dy="4.99764"/>
<feGaussianBlur stdDeviation="4.99764"/>
<feColorMatrix type="matrix" values="0 0 0 0 0.172 0 0 0 0 0.172 0 0 0 0 0.172 0 0 0 0.25 0"/>
<feBlend mode="normal" in2="BackgroundImageFix" result="effect1_dropShadow_70_43"/>
<feBlend mode="normal" in="SourceGraphic" in2="effect1_dropShadow_70_43" result="shape"/>
<feColorMatrix in="SourceAlpha" type="matrix" values="0 0 0 0 0 0 0 0 0 0 0 0 0 0 0 0 0 0 127 0" result="hardAlpha"/>
<feOffset dy="1.66588"/>
<feGaussianBlur stdDeviation="0.83294"/>
<feComposite in2="hardAlpha" operator="arithmetic" k2="-1" k3="1"/>
<feColorMatrix type="matrix" values="0 0 0 0 0.9976 0 0 0 0 0.9976 0 0 0 0 0.9976 0 0 0 1 0"/>
<feBlend mode="normal" in2="shape" result="effect2_innerShadow_70_43"/>
<feColorMatrix in="SourceAlpha" type="matrix" values="0 0 0 0 0 0 0 0 0 0 0 0 0 0 0 0 0 0 127 0" result="hardAlpha"/>
<feOffset dy="-1.66588"/>
<feGaussianBlur stdDeviation="0.83294"/>
<feComposite in2="hardAlpha" operator="arithmetic" k2="-1" k3="1"/>
<feColorMatrix type="matrix" values="0 0 0 0 0.688 0 0 0 0 0.688 0 0 0 0 0.688 0 0 0 1 0"/>
<feBlend mode="normal" in2="effect2_innerShadow_70_43" result="effect3_innerShadow_70_43"/>
</filter>
<filter id="filter1_dii_70_43" x="949.915" y="309.784" width="40.2767" height="75.9568" filterUnits="userSpaceOnUse" color-interpolation-filters="sRGB">
<feFlood flood-opacity="0" result="BackgroundImageFix"/>
<feColorMatrix in="SourceAlpha" type="matrix" values="0 0 0 0 0 0 0 0 0 0 0 0 0 0 0 0 0 0 127 0" result="hardAlpha"/>
<feOffset dy="4.90268"/>
<feGaussianBlur stdDeviation="4.90268"/>
<feColorMatrix type="matrix" values="0 0 0 0 0.172 0 0 0 0 0.172 0 0 0 0 0.172 0 0 0 0.25 0"/>
<feBlend mode="normal" in2="BackgroundImageFix" result="effect1_dropShadow_70_43"/>
<feBlend mode="normal" in="SourceGraphic" in2="effect1_dropShadow_70_43" result="shape"/>
<feColorMatrix in="SourceAlpha" type="matrix" values="0 0 0 0 0 0 0 0 0 0 0 0 0 0 0 0 0 0 127 0" result="hardAlpha"/>
<feOffset dy="1.63423"/>
<feGaussianBlur stdDeviation="0.817114"/>
<feComposite in2="hardAlpha" operator="arithmetic" k2="-1" k3="1"/>
<feColorMatrix type="matrix" values="0 0 0 0 0.9976 0 0 0 0 0.9976 0 0 0 0 0.9976 0 0 0 1 0"/>
<feBlend mode="normal" in2="shape" result="effect2_innerShadow_70_43"/>
<feColorMatrix in="SourceAlpha" type="matrix" values="0 0 0 0 0 0 0 0 0 0 0 0 0 0 0 0 0 0 127 0" result="hardAlpha"/>
<feOffset dy="-1.63423"/>
<feGaussianBlur stdDeviation="0.817114"/>
<feComposite in2="hardAlpha" operator="arithmetic" k2="-1" k3="1"/>
<feColorMatrix type="matrix" values="0 0 0 0 0.688 0 0 0 0 0.688 0 0 0 0 0.688 0 0 0 1 0"/>
<feBlend mode="normal" in2="effect2_innerShadow_70_43" result="effect3_innerShadow_70_43"/>
</filter>
<filter id="filter2_dii_70_43" x="982.047" y="4.02334" width="57.2318" height="57.2318" filterUnits="userSpaceOnUse" color-interpolation-filters="sRGB">
<feFlood flood-opacity="0" result="BackgroundImageFix"/>
<feColorMatrix in="SourceAlpha" type="matrix" values="0 0 0 0 0 0 0 0 0 0 0 0 0 0 0 0 0 0 127 0" result="hardAlpha"/>
<feOffset dy="4.97668"/>
<feGaussianBlur stdDeviation="4.97668"/>
<feColorMatrix type="matrix" values="0 0 0 0 0.172 0 0 0 0 0.172 0 0 0 0 0.172 0 0 0 0.25 0"/>
<feBlend mode="normal" in2="BackgroundImageFix" result="effect1_dropShadow_70_43"/>
<feBlend mode="normal" in="SourceGraphic" in2="effect1_dropShadow_70_43" result="shape"/>
<feColorMatrix in="SourceAlpha" type="matrix" values="0 0 0 0 0 0 0 0 0 0 0 0 0 0 0 0 0 0 127 0" result="hardAlpha"/>
<feOffset dy="1.65889"/>
<feGaussianBlur stdDeviation="0.829446"/>
<feComposite in2="hardAlpha" operator="arithmetic" k2="-1" k3="1"/>
<feColorMatrix type="matrix" values="0 0 0 0 0.9976 0 0 0 0 0.9976 0 0 0 0 0.9976 0 0 0 1 0"/>
<feBlend mode="normal" in2="shape" result="effect2_innerShadow_70_43"/>
<feColorMatrix in="SourceAlpha" type="matrix" values="0 0 0 0 0 0 0 0 0 0 0 0 0 0 0 0 0 0 127 0" result="hardAlpha"/>
<feOffset dy="-1.65889"/>
<feGaussianBlur stdDeviation="0.829446"/>
<feComposite in2="hardAlpha" operator="arithmetic" k2="-1" k3="1"/>
<feColorMatrix type="matrix" values="0 0 0 0 0.688 0 0 0 0 0.688 0 0 0 0 0.688 0 0 0 1 0"/>
<feBlend mode="normal" in2="effect2_innerShadow_70_43" result="effect3_innerShadow_70_43"/>
</filter>
<filter id="filter3_dii_70_43" x="0.802366" y="289.831" width="27.2988" height="48.5748" filterUnits="userSpaceOnUse" color-interpolation-filters="sRGB">
<feFlood flood-opacity="0" result="BackgroundImageFix"/>
<feColorMatrix in="SourceAlpha" type="matrix" values="0 0 0 0 0 0 0 0 0 0 0 0 0 0 0 0 0 0 127 0" result="hardAlpha"/>
<feOffset dy="3.02924"/>
<feGaussianBlur stdDeviation="3.02924"/>
<feColorMatrix type="matrix" values="0 0 0 0 0.172 0 0 0 0 0.172 0 0 0 0 0.172 0 0 0 0.25 0"/>
<feBlend mode="normal" in2="BackgroundImageFix" result="effect1_dropShadow_70_43"/>
<feBlend mode="normal" in="SourceGraphic" in2="effect1_dropShadow_70_43" result="shape"/>
<feColorMatrix in="SourceAlpha" type="matrix" values="0 0 0 0 0 0 0 0 0 0 0 0 0 0 0 0 0 0 127 0" result="hardAlpha"/>
<feOffset dy="1.00975"/>
<feGaussianBlur stdDeviation="0.504873"/>
<feComposite in2="hardAlpha" operator="arithmetic" k2="-1" k3="1"/>
<feColorMatrix type="matrix" values="0 0 0 0 0.9976 0 0 0 0 0.9976 0 0 0 0 0.9976 0 0 0 1 0"/>
<feBlend mode="normal" in2="shape" result="effect2_innerShadow_70_43"/>
<feColorMatrix in="SourceAlpha" type="matrix" values="0 0 0 0 0 0 0 0 0 0 0 0 0 0 0 0 0 0 127 0" result="hardAlpha"/>
<feOffset dy="-1.00975"/>
<feGaussianBlur stdDeviation="0.504873"/>
<feComposite in2="hardAlpha" operator="arithmetic" k2="-1" k3="1"/>
<feColorMatrix type="matrix" values="0 0 0 0 0.688 0 0 0 0 0.688 0 0 0 0 0.688 0 0 0 1 0"/>
<feBlend mode="normal" in2="effect2_innerShadow_70_43" result="effect3_innerShadow_70_43"/>
</filter>
<filter id="filter4_dii_70_43" x="323.659" y="377.993" width="54.4108" height="65.1167" filterUnits="userSpaceOnUse" color-interpolation-filters="sRGB">
<feFlood flood-opacity="0" result="BackgroundImageFix"/>
<feColorMatrix in="SourceAlpha" type="matrix" values="0 0 0 0 0 0 0 0 0 0 0 0 0 0 0 0 0 0 127 0" result="hardAlpha"/>
<feOffset dy="4.68817"/>
<feGaussianBlur stdDeviation="4.68817"/>
<feColorMatrix type="matrix" values="0 0 0 0 0.172 0 0 0 0 0.172 0 0 0 0 0.172 0 0 0 0.25 0"/>
<feBlend mode="normal" in2="BackgroundImageFix" result="effect1_dropShadow_70_43"/>
<feBlend mode="normal" in="SourceGraphic" in2="effect1_dropShadow_70_43" result="shape"/>
<feColorMatrix in="SourceAlpha" type="matrix" values="0 0 0 0 0 0 0 0 0 0 0 0 0 0 0 0 0 0 127 0" result="hardAlpha"/>
<feOffset dy="1.56272"/>
<feGaussianBlur stdDeviation="0.781362"/>
<feComposite in2="hardAlpha" operator="arithmetic" k2="-1" k3="1"/>
<feColorMatrix type="matrix" values="0 0 0 0 0.9976 0 0 0 0 0.9976 0 0 0 0 0.9976 0 0 0 1 0"/>
<feBlend mode="normal" in2="shape" result="effect2_innerShadow_70_43"/>
<feColorMatrix in="SourceAlpha" type="matrix" values="0 0 0 0 0 0 0 0 0 0 0 0 0 0 0 0 0 0 127 0" result="hardAlpha"/>
<feOffset dy="-1.56272"/>
<feGaussianBlur stdDeviation="0.781362"/>
<feComposite in2="hardAlpha" operator="arithmetic" k2="-1" k3="1"/>
<feColorMatrix type="matrix" values="0 0 0 0 0.688 0 0 0 0 0.688 0 0 0 0 0.688 0 0 0 1 0"/>
<feBlend mode="normal" in2="effect2_innerShadow_70_43" result="effect3_innerShadow_70_43"/>
</filter>
<filter id="filter5_dii_70_43" x="1.65975" y="3.6627" width="48.3135" height="49.754" filterUnits="userSpaceOnUse" color-interpolation-filters="sRGB">
<feFlood flood-opacity="0" result="BackgroundImageFix"/>
<feColorMatrix in="SourceAlpha" type="matrix" values="0 0 0 0 0 0 0 0 0 0 0 0 0 0 0 0 0 0 127 0" result="hardAlpha"/>
<feOffset dy="4.00292"/>
<feGaussianBlur stdDeviation="4.00292"/>
<feColorMatrix type="matrix" values="0 0 0 0 0.172 0 0 0 0 0.172 0 0 0 0 0.172 0 0 0 0.25 0"/>
<feBlend mode="normal" in2="BackgroundImageFix" result="effect1_dropShadow_70_43"/>
<feBlend mode="normal" in="SourceGraphic" in2="effect1_dropShadow_70_43" result="shape"/>
<feColorMatrix in="SourceAlpha" type="matrix" values="0 0 0 0 0 0 0 0 0 0 0 0 0 0 0 0 0 0 127 0" result="hardAlpha"/>
<feOffset dy="1.33431"/>
<feGaussianBlur stdDeviation="0.667153"/>
<feComposite in2="hardAlpha" operator="arithmetic" k2="-1" k3="1"/>
<feColorMatrix type="matrix" values="0 0 0 0 0.9976 0 0 0 0 0.9976 0 0 0 0 0.9976 0 0 0 1 0"/>
<feBlend mode="normal" in2="shape" result="effect2_innerShadow_70_43"/>
<feColorMatrix in="SourceAlpha" type="matrix" values="0 0 0 0 0 0 0 0 0 0 0 0 0 0 0 0 0 0 127 0" result="hardAlpha"/>
<feOffset dy="-1.33431"/>
<feGaussianBlur stdDeviation="0.667153"/>
<feComposite in2="hardAlpha" operator="arithmetic" k2="-1" k3="1"/>
<feColorMatrix type="matrix" values="0 0 0 0 0.688 0 0 0 0 0.688 0 0 0 0 0.688 0 0 0 1 0"/>
<feBlend mode="normal" in2="effect2_innerShadow_70_43" result="effect3_innerShadow_70_43"/>
</filter>
<linearGradient id="paint0_linear_70_43" x1="707.41" y1="298.383" x2="694.536" y2="333.754" gradientUnits="userSpaceOnUse">
<stop stop-color="#F6F6F6"/>
<stop offset="1" stop-color="#B8B8B8"/>
</linearGradient>
<linearGradient id="paint1_linear_70_43" x1="975.738" y1="314.497" x2="964.7" y2="371.287" gradientUnits="userSpaceOnUse">
<stop stop-color="#F6F6F6"/>
<stop offset="1" stop-color="#B8B8B8"/>
</linearGradient>
<linearGradient id="paint2_linear_70_43" x1="1010.66" y1="9.00002" x2="1010.66" y2="46.3251" gradientUnits="userSpaceOnUse">
<stop stop-color="#F6F6F6"/>
<stop offset="1" stop-color="#B8B8B8"/>
</linearGradient>
<linearGradient id="paint3_linear_70_43" x1="18.9662" y1="292.981" x2="9.93655" y2="329.197" gradientUnits="userSpaceOnUse">
<stop stop-color="#F6F6F6"/>
<stop offset="1" stop-color="#B8B8B8"/>
</linearGradient>
<linearGradient id="paint4_linear_70_43" x1="331.547" y1="386.547" x2="370.179" y2="425.179" gradientUnits="userSpaceOnUse">
<stop stop-color="#F6F6F6"/>
<stop offset="1" stop-color="#B8B8B8"/>
</linearGradient>
<linearGradient id="paint5_linear_70_43" x1="14.2435" y1="14.0846" x2="31.39" y2="28.9898" gradientUnits="userSpaceOnUse">
<stop stop-color="#F6F6F6"/>
<stop offset="1" stop-color="#B8B8B8"/>
</linearGradient>
</defs>
</svg>
