<svg width="1436" height="817" viewBox="0 0 1436 817" fill="none" xmlns="http://www.w3.org/2000/svg">
<g filter="url(#filter0_dii_70_44)">
<path d="M1094.64 37.9493C1094.64 40.1727 1092.85 41.9816 1090.63 42.0055L1061.42 42.3233C1059.18 42.3469 1057.34 40.5507 1057.32 38.3106L1057 9.10165C1056.98 7.46066 1057.95 5.97044 1059.46 5.326C1060.97 4.68156 1062.72 5.00984 1063.9 6.15773L1093.42 35.0491C1094.2 35.8124 1094.64 36.8579 1094.64 37.9493ZM1065.39 34.1646L1080.75 33.9971L1065.22 18.8059L1065.39 34.1646Z" fill="url(#paint0_linear_70_44)"/>
</g>
<g filter="url(#filter1_dii_70_44)">
<path d="M659.111 800.867C657.021 800.107 655.934 797.806 656.672 795.708L666.363 768.152C667.107 766.039 669.423 764.929 671.536 765.671L699.092 775.363C700.64 775.907 701.708 777.331 701.798 778.969C701.887 780.608 700.98 782.139 699.501 782.849L662.253 800.713C661.269 801.185 660.136 801.24 659.111 800.867ZM672.672 774.672L667.577 789.161L687.162 779.769L672.672 774.672Z" fill="url(#paint1_linear_70_44)"/>
</g>
<g filter="url(#filter2_dii_70_44)">
<path d="M1243 791.957C1241.37 791.64 1240.1 790.363 1239.79 788.732C1239.48 787.101 1240.2 785.445 1241.6 784.553C1242.39 784.049 1243.2 783.637 1243.91 783.276C1246.05 782.192 1246.45 781.86 1246.61 781.055C1246.76 780.249 1246.52 779.791 1244.94 777.986C1243.16 775.951 1240.48 772.876 1241.42 768.034C1242.36 763.193 1246 761.348 1248.41 760.126C1250.55 759.042 1250.95 758.71 1251.11 757.905C1251.26 757.1 1251.02 756.64 1249.44 754.831C1247.67 752.795 1244.98 749.72 1245.92 744.879C1246.87 740.039 1250.5 738.191 1252.91 736.969C1253.41 736.719 1253.87 736.483 1254.27 736.246C1256.21 735.111 1258.69 735.758 1259.83 737.69C1260.96 739.622 1260.32 742.109 1258.38 743.243C1257.77 743.608 1257.17 743.911 1256.58 744.206C1254.45 745.29 1254.04 745.621 1253.89 746.431C1253.73 747.241 1253.98 747.696 1255.55 749.505C1257.33 751.541 1260.01 754.616 1259.07 759.457C1258.13 764.297 1254.49 766.143 1252.08 767.366C1249.95 768.45 1249.54 768.782 1249.39 769.587C1249.23 770.392 1249.48 770.852 1251.05 772.657C1252.83 774.691 1255.51 777.767 1254.57 782.607C1253.63 787.446 1249.99 789.293 1247.58 790.516C1246.98 790.821 1246.42 791.109 1245.96 791.399C1245.08 791.957 1244.02 792.157 1243 791.957Z" fill="url(#paint2_linear_70_44)"/>
</g>
<g filter="url(#filter3_dii_70_44)">
<path d="M1406.66 236.325C1399.11 236.325 1392.31 231.778 1389.42 224.805C1386.53 217.831 1388.13 209.804 1393.47 204.467C1398.8 199.129 1406.83 197.533 1413.8 200.421C1420.78 203.31 1425.33 210.115 1425.33 217.663C1425.31 227.965 1416.96 236.313 1406.66 236.325ZM1406.66 207.115C1400.84 207.115 1396.11 211.837 1396.11 217.663C1396.11 223.488 1400.84 228.211 1406.66 228.211C1412.49 228.211 1417.21 223.488 1417.21 217.663C1417.2 211.84 1412.49 207.121 1406.66 207.115Z" fill="url(#paint3_linear_70_44)"/>
</g>
<g filter="url(#filter4_dii_70_44)">
<path d="M9.93655 375.197C8.89219 374.937 7.99397 374.273 7.4398 373.35C6.88563 372.427 6.72091 371.322 6.98191 370.278L14.0482 341.937C14.5902 339.762 16.7921 338.439 18.9662 338.981C21.1402 339.524 22.4632 341.725 21.9212 343.899L14.8549 372.241C14.5951 373.285 13.9309 374.184 13.0084 374.738C12.0859 375.293 10.9809 375.458 9.93655 375.197Z" fill="url(#paint4_linear_70_44)"/>
</g>
<g filter="url(#filter5_dii_70_44)">
<path d="M112.5 755.858C111.392 756.964 109.747 757.335 108.273 756.81C106.798 756.285 105.757 754.959 105.597 753.401L104.712 744.755L96.0627 743.868C94.1499 743.672 92.6378 742.16 92.4412 740.247L91.5542 731.598L82.9041 730.71C80.9909 730.513 79.4784 729.001 79.282 727.088L78.057 715.152C77.909 713.71 78.5415 712.299 79.7162 711.45C80.8909 710.601 82.4293 710.443 83.7521 711.036C85.0748 711.628 85.9808 712.882 86.1288 714.324L87.0197 722.976L95.6726 723.867C97.5854 724.064 99.0975 725.576 99.2941 727.489L100.181 736.138L108.83 737.025C110.743 737.221 112.256 738.734 112.452 740.647L113.673 752.578C113.796 753.793 113.365 754.998 112.5 755.858Z" fill="url(#paint5_linear_70_44)"/>
</g>
<g filter="url(#filter6_dii_70_44)">
<path d="M221.972 41.9671C221.266 42.7792 220.266 43.2778 219.193 43.3529C218.12 43.4279 217.06 43.0734 216.248 42.3673C211.852 38.5453 205.189 39.0112 201.367 43.4079C197.545 47.8045 198.011 54.467 202.408 58.289C204.099 59.759 204.278 62.3215 202.808 64.0125C201.338 65.7035 198.776 65.8827 197.085 64.4127C189.306 57.6508 188.482 45.8633 195.244 38.0846C202.005 30.3059 213.793 29.4816 221.572 36.2436C222.384 36.9495 222.882 37.949 222.957 39.0224C223.033 40.0958 222.678 41.155 221.972 41.9671Z" fill="url(#paint6_linear_70_44)"/>
</g>
<defs>
<filter id="filter0_dii_70_44" x="1047" y="0.00236082" width="57.6315" height="57.3141" filterUnits="userSpaceOnUse" color-interpolation-filters="sRGB">
<feFlood flood-opacity="0" result="BackgroundImageFix"/>
<feColorMatrix in="SourceAlpha" type="matrix" values="0 0 0 0 0 0 0 0 0 0 0 0 0 0 0 0 0 0 127 0" result="hardAlpha"/>
<feOffset dy="4.99764"/>
<feGaussianBlur stdDeviation="4.99764"/>
<feColorMatrix type="matrix" values="0 0 0 0 0.172 0 0 0 0 0.172 0 0 0 0 0.172 0 0 0 0.25 0"/>
<feBlend mode="normal" in2="BackgroundImageFix" result="effect1_dropShadow_70_44"/>
<feBlend mode="normal" in="SourceGraphic" in2="effect1_dropShadow_70_44" result="shape"/>
<feColorMatrix in="SourceAlpha" type="matrix" values="0 0 0 0 0 0 0 0 0 0 0 0 0 0 0 0 0 0 127 0" result="hardAlpha"/>
<feOffset dy="1.66588"/>
<feGaussianBlur stdDeviation="0.83294"/>
<feComposite in2="hardAlpha" operator="arithmetic" k2="-1" k3="1"/>
<feColorMatrix type="matrix" values="0 0 0 0 0.9976 0 0 0 0 0.9976 0 0 0 0 0.9976 0 0 0 1 0"/>
<feBlend mode="normal" in2="shape" result="effect2_innerShadow_70_44"/>
<feColorMatrix in="SourceAlpha" type="matrix" values="0 0 0 0 0 0 0 0 0 0 0 0 0 0 0 0 0 0 127 0" result="hardAlpha"/>
<feOffset dy="-1.66588"/>
<feGaussianBlur stdDeviation="0.83294"/>
<feComposite in2="hardAlpha" operator="arithmetic" k2="-1" k3="1"/>
<feColorMatrix type="matrix" values="0 0 0 0 0.688 0 0 0 0 0.688 0 0 0 0 0.688 0 0 0 1 0"/>
<feBlend mode="normal" in2="effect2_innerShadow_70_44" result="effect3_innerShadow_70_44"/>
</filter>
<filter id="filter1_dii_70_44" x="646.445" y="760.443" width="65.3537" height="55.6617" filterUnits="userSpaceOnUse" color-interpolation-filters="sRGB">
<feFlood flood-opacity="0" result="BackgroundImageFix"/>
<feColorMatrix in="SourceAlpha" type="matrix" values="0 0 0 0 0 0 0 0 0 0 0 0 0 0 0 0 0 0 127 0" result="hardAlpha"/>
<feOffset dy="4.99764"/>
<feGaussianBlur stdDeviation="4.99764"/>
<feColorMatrix type="matrix" values="0 0 0 0 0.172 0 0 0 0 0.172 0 0 0 0 0.172 0 0 0 0.25 0"/>
<feBlend mode="normal" in2="BackgroundImageFix" result="effect1_dropShadow_70_44"/>
<feBlend mode="normal" in="SourceGraphic" in2="effect1_dropShadow_70_44" result="shape"/>
<feColorMatrix in="SourceAlpha" type="matrix" values="0 0 0 0 0 0 0 0 0 0 0 0 0 0 0 0 0 0 127 0" result="hardAlpha"/>
<feOffset dy="1.66588"/>
<feGaussianBlur stdDeviation="0.83294"/>
<feComposite in2="hardAlpha" operator="arithmetic" k2="-1" k3="1"/>
<feColorMatrix type="matrix" values="0 0 0 0 0.9976 0 0 0 0 0.9976 0 0 0 0 0.9976 0 0 0 1 0"/>
<feBlend mode="normal" in2="shape" result="effect2_innerShadow_70_44"/>
<feColorMatrix in="SourceAlpha" type="matrix" values="0 0 0 0 0 0 0 0 0 0 0 0 0 0 0 0 0 0 127 0" result="hardAlpha"/>
<feOffset dy="-1.66588"/>
<feGaussianBlur stdDeviation="0.83294"/>
<feComposite in2="hardAlpha" operator="arithmetic" k2="-1" k3="1"/>
<feColorMatrix type="matrix" values="0 0 0 0 0.688 0 0 0 0 0.688 0 0 0 0 0.688 0 0 0 1 0"/>
<feBlend mode="normal" in2="effect2_innerShadow_70_44" result="effect3_innerShadow_70_44"/>
</filter>
<filter id="filter2_dii_70_44" x="1229.92" y="730.784" width="40.2767" height="75.9568" filterUnits="userSpaceOnUse" color-interpolation-filters="sRGB">
<feFlood flood-opacity="0" result="BackgroundImageFix"/>
<feColorMatrix in="SourceAlpha" type="matrix" values="0 0 0 0 0 0 0 0 0 0 0 0 0 0 0 0 0 0 127 0" result="hardAlpha"/>
<feOffset dy="4.90268"/>
<feGaussianBlur stdDeviation="4.90268"/>
<feColorMatrix type="matrix" values="0 0 0 0 0.172 0 0 0 0 0.172 0 0 0 0 0.172 0 0 0 0.25 0"/>
<feBlend mode="normal" in2="BackgroundImageFix" result="effect1_dropShadow_70_44"/>
<feBlend mode="normal" in="SourceGraphic" in2="effect1_dropShadow_70_44" result="shape"/>
<feColorMatrix in="SourceAlpha" type="matrix" values="0 0 0 0 0 0 0 0 0 0 0 0 0 0 0 0 0 0 127 0" result="hardAlpha"/>
<feOffset dy="1.63423"/>
<feGaussianBlur stdDeviation="0.817114"/>
<feComposite in2="hardAlpha" operator="arithmetic" k2="-1" k3="1"/>
<feColorMatrix type="matrix" values="0 0 0 0 0.9976 0 0 0 0 0.9976 0 0 0 0 0.9976 0 0 0 1 0"/>
<feBlend mode="normal" in2="shape" result="effect2_innerShadow_70_44"/>
<feColorMatrix in="SourceAlpha" type="matrix" values="0 0 0 0 0 0 0 0 0 0 0 0 0 0 0 0 0 0 127 0" result="hardAlpha"/>
<feOffset dy="-1.63423"/>
<feGaussianBlur stdDeviation="0.817114"/>
<feComposite in2="hardAlpha" operator="arithmetic" k2="-1" k3="1"/>
<feColorMatrix type="matrix" values="0 0 0 0 0.688 0 0 0 0 0.688 0 0 0 0 0.688 0 0 0 1 0"/>
<feBlend mode="normal" in2="effect2_innerShadow_70_44" result="effect3_innerShadow_70_44"/>
</filter>
<filter id="filter3_dii_70_44" x="1378.05" y="194.023" width="57.2319" height="57.2318" filterUnits="userSpaceOnUse" color-interpolation-filters="sRGB">
<feFlood flood-opacity="0" result="BackgroundImageFix"/>
<feColorMatrix in="SourceAlpha" type="matrix" values="0 0 0 0 0 0 0 0 0 0 0 0 0 0 0 0 0 0 127 0" result="hardAlpha"/>
<feOffset dy="4.97668"/>
<feGaussianBlur stdDeviation="4.97668"/>
<feColorMatrix type="matrix" values="0 0 0 0 0.172 0 0 0 0 0.172 0 0 0 0 0.172 0 0 0 0.25 0"/>
<feBlend mode="normal" in2="BackgroundImageFix" result="effect1_dropShadow_70_44"/>
<feBlend mode="normal" in="SourceGraphic" in2="effect1_dropShadow_70_44" result="shape"/>
<feColorMatrix in="SourceAlpha" type="matrix" values="0 0 0 0 0 0 0 0 0 0 0 0 0 0 0 0 0 0 127 0" result="hardAlpha"/>
<feOffset dy="1.65889"/>
<feGaussianBlur stdDeviation="0.829446"/>
<feComposite in2="hardAlpha" operator="arithmetic" k2="-1" k3="1"/>
<feColorMatrix type="matrix" values="0 0 0 0 0.9976 0 0 0 0 0.9976 0 0 0 0 0.9976 0 0 0 1 0"/>
<feBlend mode="normal" in2="shape" result="effect2_innerShadow_70_44"/>
<feColorMatrix in="SourceAlpha" type="matrix" values="0 0 0 0 0 0 0 0 0 0 0 0 0 0 0 0 0 0 127 0" result="hardAlpha"/>
<feOffset dy="-1.65889"/>
<feGaussianBlur stdDeviation="0.829446"/>
<feComposite in2="hardAlpha" operator="arithmetic" k2="-1" k3="1"/>
<feColorMatrix type="matrix" values="0 0 0 0 0.688 0 0 0 0 0.688 0 0 0 0 0.688 0 0 0 1 0"/>
<feBlend mode="normal" in2="effect2_innerShadow_70_44" result="effect3_innerShadow_70_44"/>
</filter>
<filter id="filter4_dii_70_44" x="0.802366" y="335.831" width="27.2988" height="48.5748" filterUnits="userSpaceOnUse" color-interpolation-filters="sRGB">
<feFlood flood-opacity="0" result="BackgroundImageFix"/>
<feColorMatrix in="SourceAlpha" type="matrix" values="0 0 0 0 0 0 0 0 0 0 0 0 0 0 0 0 0 0 127 0" result="hardAlpha"/>
<feOffset dy="3.02924"/>
<feGaussianBlur stdDeviation="3.02924"/>
<feColorMatrix type="matrix" values="0 0 0 0 0.172 0 0 0 0 0.172 0 0 0 0 0.172 0 0 0 0.25 0"/>
<feBlend mode="normal" in2="BackgroundImageFix" result="effect1_dropShadow_70_44"/>
<feBlend mode="normal" in="SourceGraphic" in2="effect1_dropShadow_70_44" result="shape"/>
<feColorMatrix in="SourceAlpha" type="matrix" values="0 0 0 0 0 0 0 0 0 0 0 0 0 0 0 0 0 0 127 0" result="hardAlpha"/>
<feOffset dy="1.00975"/>
<feGaussianBlur stdDeviation="0.504873"/>
<feComposite in2="hardAlpha" operator="arithmetic" k2="-1" k3="1"/>
<feColorMatrix type="matrix" values="0 0 0 0 0.9976 0 0 0 0 0.9976 0 0 0 0 0.9976 0 0 0 1 0"/>
<feBlend mode="normal" in2="shape" result="effect2_innerShadow_70_44"/>
<feColorMatrix in="SourceAlpha" type="matrix" values="0 0 0 0 0 0 0 0 0 0 0 0 0 0 0 0 0 0 127 0" result="hardAlpha"/>
<feOffset dy="-1.00975"/>
<feGaussianBlur stdDeviation="0.504873"/>
<feComposite in2="hardAlpha" operator="arithmetic" k2="-1" k3="1"/>
<feColorMatrix type="matrix" values="0 0 0 0 0.688 0 0 0 0 0.688 0 0 0 0 0.688 0 0 0 1 0"/>
<feBlend mode="normal" in2="effect2_innerShadow_70_44" result="effect3_innerShadow_70_44"/>
</filter>
<filter id="filter5_dii_70_44" x="68.6594" y="705.993" width="54.4108" height="65.1167" filterUnits="userSpaceOnUse" color-interpolation-filters="sRGB">
<feFlood flood-opacity="0" result="BackgroundImageFix"/>
<feColorMatrix in="SourceAlpha" type="matrix" values="0 0 0 0 0 0 0 0 0 0 0 0 0 0 0 0 0 0 127 0" result="hardAlpha"/>
<feOffset dy="4.68817"/>
<feGaussianBlur stdDeviation="4.68817"/>
<feColorMatrix type="matrix" values="0 0 0 0 0.172 0 0 0 0 0.172 0 0 0 0 0.172 0 0 0 0.25 0"/>
<feBlend mode="normal" in2="BackgroundImageFix" result="effect1_dropShadow_70_44"/>
<feBlend mode="normal" in="SourceGraphic" in2="effect1_dropShadow_70_44" result="shape"/>
<feColorMatrix in="SourceAlpha" type="matrix" values="0 0 0 0 0 0 0 0 0 0 0 0 0 0 0 0 0 0 127 0" result="hardAlpha"/>
<feOffset dy="1.56272"/>
<feGaussianBlur stdDeviation="0.781362"/>
<feComposite in2="hardAlpha" operator="arithmetic" k2="-1" k3="1"/>
<feColorMatrix type="matrix" values="0 0 0 0 0.9976 0 0 0 0 0.9976 0 0 0 0 0.9976 0 0 0 1 0"/>
<feBlend mode="normal" in2="shape" result="effect2_innerShadow_70_44"/>
<feColorMatrix in="SourceAlpha" type="matrix" values="0 0 0 0 0 0 0 0 0 0 0 0 0 0 0 0 0 0 127 0" result="hardAlpha"/>
<feOffset dy="-1.56272"/>
<feGaussianBlur stdDeviation="0.781362"/>
<feComposite in2="hardAlpha" operator="arithmetic" k2="-1" k3="1"/>
<feColorMatrix type="matrix" values="0 0 0 0 0.688 0 0 0 0 0.688 0 0 0 0 0.688 0 0 0 1 0"/>
<feBlend mode="normal" in2="effect2_innerShadow_70_44" result="effect3_innerShadow_70_44"/>
</filter>
<filter id="filter6_dii_70_44" x="182.66" y="27.6627" width="48.3134" height="49.754" filterUnits="userSpaceOnUse" color-interpolation-filters="sRGB">
<feFlood flood-opacity="0" result="BackgroundImageFix"/>
<feColorMatrix in="SourceAlpha" type="matrix" values="0 0 0 0 0 0 0 0 0 0 0 0 0 0 0 0 0 0 127 0" result="hardAlpha"/>
<feOffset dy="4.00292"/>
<feGaussianBlur stdDeviation="4.00292"/>
<feColorMatrix type="matrix" values="0 0 0 0 0.172 0 0 0 0 0.172 0 0 0 0 0.172 0 0 0 0.25 0"/>
<feBlend mode="normal" in2="BackgroundImageFix" result="effect1_dropShadow_70_44"/>
<feBlend mode="normal" in="SourceGraphic" in2="effect1_dropShadow_70_44" result="shape"/>
<feColorMatrix in="SourceAlpha" type="matrix" values="0 0 0 0 0 0 0 0 0 0 0 0 0 0 0 0 0 0 127 0" result="hardAlpha"/>
<feOffset dy="1.33431"/>
<feGaussianBlur stdDeviation="0.667153"/>
<feComposite in2="hardAlpha" operator="arithmetic" k2="-1" k3="1"/>
<feColorMatrix type="matrix" values="0 0 0 0 0.9976 0 0 0 0 0.9976 0 0 0 0 0.9976 0 0 0 1 0"/>
<feBlend mode="normal" in2="shape" result="effect2_innerShadow_70_44"/>
<feColorMatrix in="SourceAlpha" type="matrix" values="0 0 0 0 0 0 0 0 0 0 0 0 0 0 0 0 0 0 127 0" result="hardAlpha"/>
<feOffset dy="-1.33431"/>
<feGaussianBlur stdDeviation="0.667153"/>
<feComposite in2="hardAlpha" operator="arithmetic" k2="-1" k3="1"/>
<feColorMatrix type="matrix" values="0 0 0 0 0.688 0 0 0 0 0.688 0 0 0 0 0.688 0 0 0 1 0"/>
<feBlend mode="normal" in2="effect2_innerShadow_70_44" result="effect3_innerShadow_70_44"/>
</filter>
<linearGradient id="paint0_linear_70_44" x1="1057" y1="23.6618" x2="1094.64" y2="23.6618" gradientUnits="userSpaceOnUse">
<stop stop-color="#F6F6F6"/>
<stop offset="1" stop-color="#B8B8B8"/>
</linearGradient>
<linearGradient id="paint1_linear_70_44" x1="685.41" y1="770.383" x2="672.536" y2="805.754" gradientUnits="userSpaceOnUse">
<stop stop-color="#F6F6F6"/>
<stop offset="1" stop-color="#B8B8B8"/>
</linearGradient>
<linearGradient id="paint2_linear_70_44" x1="1255.74" y1="735.497" x2="1244.7" y2="792.287" gradientUnits="userSpaceOnUse">
<stop stop-color="#F6F6F6"/>
<stop offset="1" stop-color="#B8B8B8"/>
</linearGradient>
<linearGradient id="paint3_linear_70_44" x1="1406.66" y1="199" x2="1406.66" y2="236.325" gradientUnits="userSpaceOnUse">
<stop stop-color="#F6F6F6"/>
<stop offset="1" stop-color="#B8B8B8"/>
</linearGradient>
<linearGradient id="paint4_linear_70_44" x1="18.9662" y1="338.981" x2="9.93655" y2="375.197" gradientUnits="userSpaceOnUse">
<stop stop-color="#F6F6F6"/>
<stop offset="1" stop-color="#B8B8B8"/>
</linearGradient>
<linearGradient id="paint5_linear_70_44" x1="76.5466" y1="714.547" x2="115.179" y2="753.179" gradientUnits="userSpaceOnUse">
<stop stop-color="#F6F6F6"/>
<stop offset="1" stop-color="#B8B8B8"/>
</linearGradient>
<linearGradient id="paint6_linear_70_44" x1="195.244" y1="38.0846" x2="212.39" y2="52.9898" gradientUnits="userSpaceOnUse">
<stop stop-color="#F6F6F6"/>
<stop offset="1" stop-color="#B8B8B8"/>
</linearGradient>
</defs>
</svg>
