<svg width="40" height="36" viewBox="0 0 40 36" fill="none" xmlns="http://www.w3.org/2000/svg">
<g id="verified user 1">
<path id="Vector" d="M18.2498 23.325L27.6665 14.85L25.2915 12.7125L18.2498 19.05L14.7498 15.9L12.3748 18.0375L18.2498 23.325ZM19.9998 33C16.1387 32.125 12.9512 30.1313 10.4373 27.0188C7.92345 23.9062 6.6665 20.45 6.6665 16.65V7.5L19.9998 3L33.3332 7.5V16.65C33.3332 20.45 32.0762 23.9062 29.5623 27.0188C27.0484 30.1313 23.8609 32.125 19.9998 33ZM19.9998 29.85C22.8887 29.025 25.2776 27.375 27.1665 24.9C29.0554 22.425 29.9998 19.675 29.9998 16.65V9.5625L19.9998 6.1875L9.99984 9.5625V16.65C9.99984 19.675 10.9443 22.425 12.8332 24.9C14.7221 27.375 17.1109 29.025 19.9998 29.85Z" fill="#939393"/>
</g>
</svg>
